PathFileType	3	(X/Y/Z)	D:\VICON_DB\Goncalves\Pilot01\09-03-2026\bw_sq_02.trc
DataRate	CameraRate	NumFrames	NumMarkers	Units	OrigDataRate	OrigDataStartFrame	OrigNumFrames
200.0	200.0	6	34	mm	200.0	168	670	
Frame#	Time	LASI			RASI			LPSI			RPSI			LTHI			LTHAP			LTHAD			LKNE			LKNM			LTIB			LTIAP			LTIAD			LANK			LMED			LHEE			LTOE			LFMH			LSMH			LVMH			RTHI			RTHAP			RTHAD			RKNE			RKNM			RTIB			RTIAP			RTIAD			RANK			RMED			RHEE			RTOE			RFMH			RSMH			RVMH			
		X1	Y1	Z1	X2	Y2	Z2	X3	Y3	Z3	X4	Y4	Z4	X5	Y5	Z5	X6	Y6	Z6	X7	Y7	Z7	X8	Y8	Z8	X9	Y9	Z9	X10	Y10	Z10	X11	Y11	Z11	X12	Y12	Z12	X13	Y13	Z13	X14	Y14	Z14	X15	Y15	Z15	X16	Y16	Z16	X17	Y17	Z17	X18	Y18	Z18	X19	Y19	Z19	X20	Y20	Z20	X21	Y21	Z21	X22	Y22	Z22	X23	Y23	Z23	X24	Y24	Z24	X25	Y25	Z25	X26	Y26	Z26	X27	Y27	Z27	X28	Y28	Z28	X29	Y29	Z29	X30	Y30	Z30	X31	Y31	Z31	X32	Y32	Z32	X33	Y33	Z33	X34	Y34	Z34	
168	0.835	221.58902	804.16754	-1079.2513	220.64421	804.73529	-1337.2714				401.58868	891.78998	-1241.3025	182.43181	670.55548	-1028.3051	230.2437	720.72266	-1023.5103	187.52211	600.99158	-990.31226	142.1452	445.00098	-997.34369				201.42032	259.05731	-990.25775	117.15691	320.16156	-1037.76	169.30992	223.63695	-1020.4921	280.47745	68.482872	-1030.2831				323.06866	68.028114	-1082.8341	203.11154	70.808914	-1049.2048	148.15907	45.148331	-1074.7615				163.69971	24.736721	-994.55811	174.47133	590.51764	-1392.7452	201.49643	709.16284	-1365.903	146.77988	644.26068	-1343.3492	140.48012	455.45807	-1372.3304				172.65839	266.56708	-1382.7667	116.44667	305.77908	-1330.2563	152.57603	230.84167	-1328.2598	289.84024	62.451534	-1353.7748				326.32327	62.428917	-1310.3175	200.60974	67.884705	-1334.4651	151.66823	49.009506	-1310.7128				165.24944	19.952847	-1383.988
169	0.84	222.8055	801.22675	-1079.3728	221.92226	801.94775	-1337.5162				402.55414	889.64648	-1241.4169	183.30916	669.34595	-1028.2113	231.47488	719.01581	-1023.5566	187.88029	599.76776	-990.18463	141.06013	444.20999	-996.91992				200.51315	258.57593	-990.05133	115.96473	319.42813	-1037.5056	168.56317	223.08472	-1020.3724	280.396	68.43454	-1030.3002				322.98953	68.082779	-1082.8295	203.08112	70.808357	-1049.2037	148.14525	45.159348	-1074.7546				163.66429	24.727673	-994.57764	174.85088	589.34424	-1393.0002	202.65932	707.66919	-1366.2708	147.47856	643.33606	-1343.6965	139.59341	454.66345	-1372.6917				171.79005	266.03137	-1382.8965	115.40595	305.0983	-1330.4283	151.88559	230.30891	-1328.3467	289.77667	62.431637	-1353.7939				326.2637	62.468513	-1310.3138	200.57597	67.869217	-1334.4727	151.65105	49.002331	-1310.7166				165.24861	19.951391	-1383.9968
170	0.845	224.00264	798.26483	-1079.5007	223.18874	799.15314	-1337.7598				403.49661	887.47937	-1241.5201	184.17622	668.11639	-1028.1302	232.68694	717.28656	-1023.6	188.22395	598.52734	-990.0755	139.97412	443.41522	-996.50763				199.60957	258.09171	-989.85565	114.78345	318.69373	-1037.2695	167.81718	222.53307	-1020.2682	280.31622	68.381264	-1030.3217				322.90726	68.136322	-1082.83	203.04932	70.806686	-1049.207	148.13025	45.168835	-1074.7491				163.62286	24.716953	-994.59967	175.23598	588.16193	-1393.2588	203.81895	706.16663	-1366.6506	148.17969	642.40424	-1344.0562	138.72102	453.87213	-1373.0599				170.93222	265.49973	-1383.0344	114.37713	304.42056	-1330.6069	151.20284	229.77997	-1328.4393	289.71378	62.411575	-1353.8151				326.20294	62.509319	-1310.3126	200.54089	67.855408	-1334.4827	151.6342	48.995152	-1310.7217				165.24776	19.948692	-1384.0072
171	0.85	225.18062	795.2843	-1079.6365	224.44403	796.35345	-1338.0002				404.41647	885.28967	-1241.6125	185.03293	666.86682	-1028.0646	233.87875	715.53497	-1023.6378	188.55231	597.27271	-989.9859	138.8887	442.61798	-996.10657				198.71289	257.6058	-989.6701	113.6148	317.95895	-1037.0494	167.07455	221.9825	-1020.177	280.23865	68.32386	-1030.3474				322.82294	68.188393	-1082.8357	203.01646	70.803818	-1049.2141	148.11458	45.176754	-1074.7451				163.57556	24.704943	-994.62372	175.62454	586.97162	-1393.5195	204.97379	704.65399	-1367.0387	148.8828	641.46576	-1344.4233	137.86174	453.0845	-1373.4349				170.08492	264.97211	-1383.1805	113.35983	303.74576	-1330.7922	150.52736	229.2547	-1328.5378	289.65121	62.391605	-1353.8381				326.14114	62.551609	-1310.3136	200.50468	67.843056	-1334.4952	151.61769	48.988087	-1310.7284				165.2469	19.944803	-1384.0189
172	0.855	226.33971	792.28809	-1079.7809	225.68848	793.5506	-1338.236				405.31418	883.0788	-1241.6945	185.87953	665.59802	-1028.0171	235.04967	713.76111	-1023.6675	188.86485	596.0061	-989.91589	137.80582	441.81998	-995.71631				197.82617	257.11942	-989.49396	112.46038	317.2243	-1036.8431	166.33809	221.43369	-1020.0961	280.1636	68.263283	-1030.3771				322.73743	68.238777	-1082.8461	202.98291	70.799713	-1049.2245	148.09859	45.183117	-1074.7423				163.52286	24.692204	-994.64923	176.01454	585.77448	-1393.7802	206.12189	703.12988	-1367.4321	149.5872	640.52094	-1344.7938	137.01465	452.30072	-1373.8153				169.24818	264.44867	-1383.334	112.3538	303.07385	-1330.9839	149.85873	228.73294	-1328.6416	289.58875	62.371925	-1353.8629				326.07858	62.595509	-1310.3158	200.46756	67.831856	-1334.5098	151.60155	48.981266	-1310.7368				165.24614	19.939844	-1384.0317
173	0.86	227.48024	789.27887	-1079.9357	226.92241	790.74677	-1338.4645				406.19046	880.8479	-1241.7664	186.71637	664.3111	-1027.9901	236.19945	711.9649	-1023.6868	189.16167	594.73041	-989.86554	136.72748	441.02313	-995.33704				196.95226	256.63412	-989.32611	111.32162	316.4906	-1036.6484	165.61043	220.88734	-1020.0224	280.09125	68.200691	-1030.4095				322.6517	68.287422	-1082.8604	202.94899	70.794411	-1049.2374	148.08269	45.187992	-1074.7407				163.46558	24.679436	-994.67572	176.40404	584.57159	-1394.0393	207.26117	701.5929	-1367.8278	150.29208	639.57025	-1345.1632	136.179	451.52087	-1374.2				168.42218	263.92914	-1383.4948	111.35881	302.40485	-1331.1815	149.1967	228.21458	-1328.7511	289.52606	62.352695	-1353.8893				326.0152	62.641041	-1310.3193	200.42978	67.821518	-1334.5256	151.58575	48.974831	-1310.7468				165.24553	19.933989	-1384.0457
